<?xml version="1.0" standalone="no"?>
<!DOCTYPE svg PUBLIC "-//W3C//DTD SVG 20010904//EN"
 "http://www.w3.org/TR/2001/REC-SVG-20010904/DTD/svg10.dtd">
<svg version="1.0" xmlns="http://www.w3.org/2000/svg"
 width="104.000000pt" height="162.000000pt" viewBox="0 0 104.000000 162.000000"
 preserveAspectRatio="xMidYMid meet">

<g transform="translate(0.000000,162.000000) scale(0.100000,-0.100000)"
fill="#115934" stroke="none">
<path d="M387 1470 c-225 -228 -351 -412 -377 -547 -15 -84 7 -171 65 -248
l23 -30 -19 -70 c-22 -87 -24 -185 -3 -255 29 -99 155 -194 352 -264 l74 -26
-6 27 c-3 16 -8 51 -12 78 -11 85 -52 200 -94 262 -22 33 -77 93 -122 133 -46
40 -93 84 -105 97 l-23 24 31 62 c49 98 114 183 233 305 60 61 112 112 116
112 10 0 256 -280 319 -363 28 -38 58 -82 66 -98 15 -28 14 -31 -12 -65 -15
-20 -64 -65 -110 -101 -45 -35 -99 -83 -118 -106 -67 -78 -115 -209 -115 -314
l0 -52 82 30 c241 89 355 208 365 383 3 51 -1 88 -14 131 l-19 60 24 60 c77
190 42 373 -108 558 -32 39 -124 137 -204 217 l-146 145 -143 -145z m511 -304
c71 -107 96 -191 89 -305 -4 -83 -29 -171 -48 -171 -5 0 -9 4 -9 9 0 18 -104
148 -254 319 l-149 170 -69 -61 c-128 -115 -255 -269 -313 -380 -17 -31 -33
-57 -36 -57 -3 0 -19 24 -35 53 -25 45 -29 62 -29 128 0 67 5 85 37 150 53
107 184 275 326 419 l123 125 158 -161 c89 -91 180 -194 209 -238z m-650 -671
c86 -82 118 -120 142 -168 30 -62 70 -220 58 -232 -11 -12 -156 56 -226 105
-93 66 -122 120 -122 233 0 77 16 167 29 167 4 0 57 -47 119 -105z m710 -15
c4 -82 2 -95 -22 -144 -47 -97 -200 -212 -320 -242 l-29 -7 7 59 c14 120 74
217 195 314 47 37 99 82 115 99 20 21 33 28 40 21 5 -5 12 -50 14 -100z"/>
</g>
</svg>
